<svg width="44" height="44" viewBox="0 0 44 44" fill="none" xmlns="http://www.w3.org/2000/svg">
<path d="M38.5001 3.66666H5.50008C4.40008 3.66666 3.66675 4.4 3.66675 5.5V38.5C3.66675 39.6 4.40008 40.3333 5.50008 40.3333H38.5001C39.6001 40.3333 40.3334 39.6 40.3334 38.5V5.5C40.3334 4.4 39.6001 3.66666 38.5001 3.66666ZM32.4501 17.05L19.9834 29.5167C19.2501 30.25 18.1501 30.25 17.4167 29.5167L11.5501 23.65C10.8167 22.9167 10.8167 21.8167 11.5501 21.0833C12.2834 20.35 13.3834 20.35 14.1167 21.0833L18.7001 25.6667L29.8834 14.4833C30.6167 13.75 31.7167 13.75 32.4501 14.4833C33.1834 15.2167 33.1834 16.3167 32.4501 17.05Z" fill="#5C75C9"/>
</svg>
