<svg width="40" height="40" viewBox="0 0 40 40" fill="none" xmlns="http://www.w3.org/2000/svg">
<g clip-path="url(#clip0_362_881)">
<path d="M39.18 0.00479189C31.3717 -0.135208 22.4667 3.94646 16.83 10.2781C11.4433 10.3798 6.19835 12.5881 2.33668 16.4498C2.11168 16.6715 2.03168 17.0031 2.13002 17.3031C2.23002 17.6048 2.49002 17.8231 2.80335 17.8681L9.22668 18.7881L8.43335 19.6765C8.13835 20.0065 8.15335 20.5081 8.46668 20.8215L19.1784 31.5331C19.34 31.6948 19.5534 31.7765 19.7684 31.7765C19.9667 31.7765 20.165 31.7065 20.3234 31.5648L21.2117 30.7715L22.1317 37.1948C22.1767 37.5081 22.4234 37.7381 22.7217 37.8381C22.7984 37.8631 22.8784 37.8748 22.96 37.8748C23.1967 37.8748 23.4384 37.7715 23.605 37.6065C27.4134 33.7981 29.6217 28.5531 29.7234 23.1665C36.0617 17.5181 40.1767 8.61646 39.995 0.818125C39.9833 0.374792 39.625 0.0164586 39.18 0.00479189ZM31.5 14.3915C30.6884 15.2031 29.6217 15.6098 28.5534 15.6098C27.485 15.6098 26.4184 15.2031 25.6067 14.3915C23.9834 12.7665 23.9834 10.1231 25.6067 8.49813C27.2317 6.87313 29.875 6.87313 31.5 8.49813C33.125 10.1231 33.125 12.7681 31.5 14.3915Z" fill="#38615C"/>
<path d="M4.5401 28.1758C2.75676 29.9591 0.308429 38.0158 0.0350957 38.9274C-0.0532377 39.2208 0.028429 39.5391 0.243429 39.7558C0.403429 39.9158 0.615096 40.0008 0.833429 40.0008C0.913429 40.0008 0.993429 39.9891 1.07343 39.9658C1.9851 39.6924 10.0418 37.2441 11.8251 35.4608C13.8334 33.4524 13.8334 30.1841 11.8251 28.1758C9.8151 26.1674 6.54843 26.1691 4.5401 28.1758Z" fill="#38615C"/>
</g>
<defs>
<clipPath id="clip0_362_881">
<rect width="40" height="40" fill="white"/>
</clipPath>
</defs>
</svg>
